<svg width="33" height="39" viewBox="0 0 33 39" fill="none" xmlns="http://www.w3.org/2000/svg">
<path fill-rule="evenodd" clip-rule="evenodd" d="M16.5 0.560002C15.875 0.560002 15.2755 0.809808 14.8335 1.25447C14.3916 1.69913 14.1433 2.30222 14.1433 2.93106L14.1433 30.4021L4.02825 20.2208C3.80913 20.0004 3.549 19.8255 3.26271 19.7062C2.97642 19.5869 2.66957 19.5255 2.35969 19.5255C2.04981 19.5255 1.74297 19.5869 1.45668 19.7062C1.17039 19.8255 0.910255 20.0004 0.691139 20.2208C0.472019 20.4413 0.298206 20.703 0.179619 20.991C0.0610348 21.279 -3.66834e-07 21.5878 -3.94132e-07 21.8995C-4.21429e-07 22.2113 0.0610347 22.52 0.179618 22.808C0.298206 23.0961 0.472019 23.3578 0.691139 23.5782L14.8314 37.8046C15.0504 38.0254 15.3104 38.2006 15.5967 38.3201C15.8831 38.4396 16.19 38.5012 16.5 38.5012C16.81 38.5012 17.1169 38.4396 17.4033 38.3201C17.6896 38.2006 17.9496 38.0254 18.1686 37.8046L32.3089 23.5782C32.7514 23.133 33 22.5292 33 21.8995C33 21.2699 32.7514 20.666 32.3089 20.2208C31.8663 19.7756 31.2661 19.5255 30.6403 19.5255C30.0145 19.5255 29.4143 19.7756 28.9717 20.2208L18.8567 30.4021L18.8567 2.93106C18.8567 2.30222 18.6084 1.69913 18.1665 1.25447C17.7245 0.809808 17.125 0.560002 16.5 0.560002Z" fill="white"/>
</svg>
