<svg width="129" height="129" viewBox="0 0 129 129" fill="none" xmlns="http://www.w3.org/2000/svg">
<circle cx="64.5" cy="64.5" r="64.5" fill="white"/>
<path d="M97.4741 45.8013H29.4556C27.8394 45.8013 26.5293 47.1111 26.5293 48.7269V98.0995C26.5293 99.7153 27.8394 101.025 29.4556 101.025H97.4741C99.0902 101.025 100.4 99.7153 100.4 98.0995V48.7269C100.4 47.1111 99.0902 45.8013 97.4741 45.8013Z" fill="#4989F5"/>
<path d="M96.6203 45.3864H30.2276C28.171 45.3864 26.5706 61.2997 26.5706 63.3559L62.9292 101.025H96.6203C98.6833 101.019 100.354 99.3489 100.36 97.2864V49.1244C100.354 47.0621 98.683 45.392 96.6203 45.3864Z" fill="url(#paint0_linear_508_3160)"/>
<path d="M43.3967 55.0494H64.5028V27.3542H46.5571L43.3967 55.0494Z" fill="#3C4BA6"/>
<path d="M85.6085 55.0494H64.5024V27.3542H82.4481L85.6085 55.0494ZM100.4 32.6042L100.426 32.6986C100.42 32.6653 100.407 32.6343 100.4 32.6042Z" fill="#7BABF7"/>
<path d="M100.426 32.6978L100.4 32.6034C99.7311 29.5399 97.0191 27.3554 93.8828 27.3534H82.4482L85.6062 55.0494H106.712L100.426 32.6978Z" fill="#3F51B5"/>
<path d="M28.6048 32.6042L28.5786 32.6986C28.585 32.6652 28.5977 32.6343 28.6048 32.6042Z" fill="#7BABF7"/>
<path d="M28.5776 32.6978L28.6038 32.6034C29.2729 29.5399 31.9849 27.3554 35.1213 27.3534H46.5566L43.3939 55.0494H22.2878L28.5776 32.6978Z" fill="#7BABF7"/>
<path fill-rule="evenodd" clip-rule="evenodd" d="M43.4323 55.0423C43.4323 60.8659 38.7101 65.587 32.8852 65.587C27.0602 65.587 22.3381 60.8659 22.3381 55.0423H43.4323Z" fill="#709BE0"/>
<path fill-rule="evenodd" clip-rule="evenodd" d="M64.5265 55.0423C64.5265 60.8659 59.8044 65.587 53.9794 65.587C48.1545 65.587 43.4324 60.8659 43.4324 55.0423H64.5265Z" fill="#3C4BA6"/>
<path fill-rule="evenodd" clip-rule="evenodd" d="M85.6205 55.0423C85.6205 60.8659 80.8984 65.587 75.0734 65.587C69.2485 65.587 64.5264 60.8659 64.5264 55.0423H85.6205Z" fill="#709BE0"/>
<path fill-rule="evenodd" clip-rule="evenodd" d="M106.712 55.0423C106.712 60.8659 101.99 65.587 96.1652 65.587C90.3403 65.587 85.6182 60.8659 85.6182 55.0423H106.712Z" fill="#3C4BA6"/>
<path d="M96.1657 83.6109C96.1284 83.1088 96.0665 82.6502 95.9785 82.0648H84.4733C84.4733 83.6736 84.4733 85.4291 84.467 87.0387H91.132C90.9904 87.7888 90.702 88.5036 90.2833 89.1419C89.8646 89.7803 89.3238 90.3296 88.6921 90.7584C88.6921 90.7584 88.6921 90.7307 88.6874 90.7299C87.8716 91.2654 86.9526 91.624 85.9896 91.7826C85.0242 91.9591 84.0343 91.9548 83.0705 91.7699C82.0918 91.5673 81.1651 91.1658 80.3481 90.5903C79.1422 89.7353 78.212 88.547 77.6718 87.1712C77.6305 87.0641 77.5924 86.9562 77.5536 86.8467V86.8348L77.5639 86.8269C77.0395 85.2882 77.0381 83.6194 77.5599 82.0799C77.9274 80.9999 78.5323 80.0159 79.3301 79.2002C81.2016 77.2647 83.998 76.5367 86.576 77.3138C87.5645 77.6169 88.4678 78.1485 89.2127 78.8655L91.4613 76.6173C91.858 76.2167 92.2698 75.8288 92.6515 75.4147C91.5113 74.3514 90.173 73.5228 88.7128 72.9761C86.0553 72.0127 83.1482 71.9873 80.4743 72.9039C80.3812 72.9357 80.2886 72.9687 80.1966 73.0031C77.3118 74.0873 74.9387 76.2137 73.5458 78.9623C73.0539 79.9351 72.6958 80.9699 72.481 82.0386C71.2073 88.3668 75.0695 94.5959 81.305 96.2702C83.3434 96.816 85.5104 96.8025 87.5646 96.336C89.4311 95.9147 91.1569 95.0181 92.5745 93.7333C94.0535 92.3728 95.1136 90.5601 95.669 88.6348C96.1334 87.0033 96.3016 85.3018 96.1657 83.6109Z" fill="white"/>
<defs>
<linearGradient id="paint0_linear_508_3160" x1="26.5706" y1="73.2052" x2="100.359" y2="73.2052" gradientUnits="userSpaceOnUse">
<stop offset="0.03" stop-color="#4079D8"/>
<stop offset="1" stop-color="#4989F5"/>
</linearGradient>
</defs>
</svg>
