<svg width="186" height="132" viewBox="0 0 186 132" fill="none" xmlns="http://www.w3.org/2000/svg">
<path d="M0 117.294L18.8224 99.8663H169.392L186 117.294H0Z" fill="black"/>
<path d="M167.041 101.853H18.9593C16.5171 101.853 14.5366 99.8038 14.5366 97.2773V4.57294C14.5366 2.04908 16.5171 7.62939e-06 18.9593 7.62939e-06H167.041C169.483 7.62939e-06 171.464 2.04908 171.464 4.57294V97.2773C171.464 99.8038 169.483 101.853 167.041 101.853Z" fill="#9B9B9B"/>
<path d="M161.294 98.0279H24.705C22.4514 98.0279 20.6238 96.2 20.6238 93.9467V11.2269C20.6238 8.97356 22.4514 7.14561 24.705 7.14561H161.294C163.548 7.14561 165.376 8.97356 165.376 11.2269V93.9467C165.376 96.2 163.548 98.0279 161.294 98.0279Z" fill="white"/>
<path d="M94.6615 2.99282C94.6615 3.90987 93.9167 4.65067 92.9997 4.65067C92.0826 4.65067 91.3379 3.90987 91.3379 2.99282C91.3379 2.07186 92.0826 1.33138 92.9997 1.33138C93.9167 1.33138 94.6615 2.07186 94.6615 2.99282Z" fill="black"/>
<path d="M176.468 131.156H9.53156C4.26661 131.156 0 126.889 0 121.624V117.293H186V121.624C186 126.889 181.733 131.156 176.468 131.156Z" fill="#9B9B9B"/>
<path d="M60.8935 101.804C60.8935 102.721 60.1487 103.465 59.2317 103.465H40.4125C39.4922 103.465 38.7507 102.721 38.7507 101.804C38.7507 100.886 39.4922 100.142 40.4125 100.142H59.2317C60.1487 100.142 60.8935 100.886 60.8935 101.804Z" fill="white"/>
<path d="M150.017 101.804C150.017 102.721 149.275 103.465 148.358 103.465H129.536C128.619 103.465 127.874 102.721 127.874 101.804C127.874 100.886 128.619 100.142 129.536 100.142H148.358C149.275 100.142 150.017 100.886 150.017 101.804Z" fill="white"/>
<path d="M71.1343 114.802L77.3195 109.075H109.41L114.867 114.802H71.1343Z" fill="white"/>
<path d="M98.5347 106.31H88.1609V105.351H98.5347V106.31Z" fill="white"/>
<path d="M24.0814 113.752H12.4556V112.792H24.0814V113.752Z" fill="white"/>
<path d="M32.6592 106.31H22.2854V105.351H32.6592V106.31Z" fill="white"/>
<path d="M28.2298 109.703H17.856V108.747H28.2298V109.703Z" fill="white"/>
<path d="M52.8646 106.31H42.4907V105.351H52.8646V106.31Z" fill="white"/>
<path d="M47.6085 109.703H37.2314V108.747H47.6085V109.703Z" fill="white"/>
<path d="M61.4469 113.752H49.821V112.792H61.4469V113.752Z" fill="white"/>
<path d="M72.5189 106.31H62.1418V105.351H72.5189V106.31Z" fill="white"/>
<path d="M67.2614 109.703H56.8843V108.747H67.2614V109.703Z" fill="white"/>
<path d="M42.9009 114.582H31.2783V113.621H42.9009V114.582Z" fill="white"/>
<path d="M175.483 113.752H163.857V112.792H175.483V113.752Z" fill="white"/>
<path d="M165.652 106.31H155.279V105.351H165.652V106.31Z" fill="white"/>
<path d="M170.081 109.703H159.704V108.747H170.081V109.703Z" fill="white"/>
<path d="M145.448 106.31H135.071V105.351H145.448V106.31Z" fill="white"/>
<path d="M150.707 109.703H140.33V108.747H150.707V109.703Z" fill="white"/>
<path d="M138.115 113.752H126.492V112.792H138.115V113.752Z" fill="white"/>
<path d="M125.796 106.31H115.419V105.351H125.796V106.31Z" fill="white"/>
<path d="M131.054 109.703H120.677V108.747H131.054V109.703Z" fill="white"/>
<path d="M156.66 114.582H145.035V113.621H156.66V114.582Z" fill="white"/>
<path d="M105.829 74.465H77.7817C76.8657 74.465 76.1228 73.7225 76.1228 72.8051C76.1228 71.889 76.8657 71.1458 77.7817 71.1458H105.829C107.463 71.1458 108.791 69.818 108.791 68.1855V68.0915C108.791 66.4593 107.463 65.1307 105.829 65.1307H77.7817C76.8657 65.1307 76.1228 64.3883 76.1228 63.472C76.1228 62.5548 76.8657 61.8116 77.7817 61.8116H105.829C109.292 61.8116 112.109 64.6301 112.109 68.0915V68.1855C112.109 71.6471 109.292 74.465 105.829 74.465Z" fill="#39BD66"/>
<path d="M108.687 65.0972L108.327 65.0439C107.668 64.8438 107.297 64.1503 107.495 63.4918L115.1 38.3395H73.6014L78.45 63.617C78.5795 64.2925 78.1363 64.945 77.4623 65.0747C76.7799 65.201 76.1354 64.7608 76.0046 64.087L70.5903 35.8509H118.452L109.879 64.2123C109.715 64.7498 109.222 65.0972 108.687 65.0972Z" fill="#39BD66"/>
<path d="M116.777 38.3412C116.638 38.3412 116.497 38.3176 116.359 38.2681C115.712 38.0373 115.374 37.3255 115.605 36.6781L118.927 27.3609H126.857C127.545 27.3609 128.102 27.9183 128.102 28.6057C128.102 29.2928 127.545 29.8495 126.857 29.8495H120.683L117.949 37.514C117.767 38.023 117.288 38.3412 116.777 38.3412Z" fill="#39BD66"/>
<path d="M133.504 30.6801H126.866C125.721 30.6801 124.792 29.7512 124.792 28.6058C124.792 27.461 125.721 26.5321 126.866 26.5321H133.504C134.65 26.5321 135.578 27.461 135.578 28.6058C135.578 29.7512 134.65 30.6801 133.504 30.6801Z" fill="#11FF8D"/>
<path d="M100.962 81.1005C100.962 84.2058 103.479 86.722 106.585 86.722C109.69 86.722 112.206 84.2058 112.206 81.1005C112.206 77.9952 109.69 75.4795 106.585 75.4795C103.479 75.4795 100.962 77.9952 100.962 81.1005Z" fill="#11FF8D"/>
<path d="M74.5225 81.1005C74.5225 84.2058 77.0397 86.722 80.1436 86.722C83.2489 86.722 85.766 84.2058 85.766 81.1005C85.766 77.9952 83.2489 75.4795 80.1436 75.4795C77.0397 75.4795 74.5225 77.9952 74.5225 81.1005Z" fill="#11FF8D"/>
<path d="M103.961 81.1005C103.961 82.5498 105.136 83.7233 106.585 83.7233C108.034 83.7233 109.207 82.5498 109.207 81.1005C109.207 79.6516 108.034 78.4783 106.585 78.4783C105.136 78.4783 103.961 79.6516 103.961 81.1005Z" fill="white"/>
<path d="M77.2488 81.1005C77.2488 82.5498 78.4236 83.7233 79.8714 83.7233C81.3207 83.7233 82.4956 82.5498 82.4956 81.1005C82.4956 79.6516 81.3207 78.4783 79.8714 78.4783C78.4236 78.4783 77.2488 79.6516 77.2488 81.1005Z" fill="white"/>
<path d="M103.043 64.4234L102.829 64.4047C102.15 64.2865 101.697 63.6424 101.816 62.9659L106.176 37.8883C106.294 37.2102 106.94 36.7567 107.615 36.8749C108.294 36.9919 108.747 37.6361 108.63 38.3142L104.268 63.3918C104.162 63.997 103.636 64.4234 103.043 64.4234Z" fill="#39BD66"/>
<path d="M96.909 63.8771L96.8259 63.8744C96.1407 63.8292 95.6215 63.2373 95.6665 62.5519L97.3015 37.7459C97.3465 37.0606 97.9417 36.5363 98.6255 36.5868C99.3107 36.6319 99.8313 37.2238 99.7849 37.9108L98.1499 62.7152C98.1063 63.3736 97.559 63.8771 96.909 63.8771Z" fill="#39BD66"/>
<path d="M84.0942 64.4234C83.4919 64.4234 82.9629 63.986 82.8658 63.372L78.9135 38.2951C78.8066 37.6152 79.2709 36.9793 79.9505 36.8711C80.6301 36.7665 81.2661 37.2283 81.373 37.9065L85.3253 62.985C85.4322 63.6634 84.9679 64.3009 84.2897 64.4081L84.0942 64.4234Z" fill="#39BD66"/>
<path d="M90.638 63.8771C89.9781 63.8771 89.4294 63.361 89.3956 62.6955L88.1701 37.8895C88.1349 37.203 88.6639 36.6193 89.3506 36.5851C90.0245 36.549 90.6211 37.0804 90.6549 37.7675L91.8818 62.5718C91.9156 63.2583 91.3866 63.8419 90.6999 63.876L90.638 63.8771Z" fill="#39BD66"/>
<path d="M114.081 46.9774H74.8295C74.1414 46.9774 73.5842 46.4201 73.5842 45.7336C73.5842 45.0454 74.1414 44.4887 74.8295 44.4887H114.081C114.768 44.4887 115.325 45.0454 115.325 45.7336C115.325 46.4201 114.768 46.9774 114.081 46.9774Z" fill="#39BD66"/>
<path d="M110.81 55.701H76.1918C75.5052 55.701 74.948 55.1442 74.948 54.4561C74.948 53.769 75.5052 53.2123 76.1918 53.2123H110.81C111.497 53.2123 112.054 53.769 112.054 54.4561C112.054 55.1442 111.497 55.701 110.81 55.701Z" fill="#39BD66"/>
</svg>
