<svg width="114" height="115" viewBox="0 0 114 115" fill="none" xmlns="http://www.w3.org/2000/svg">
<ellipse cx="57" cy="57.5068" rx="57" ry="57.3566" fill="#C4C4C4"/>
<path d="M76.4042 71.8422C76.4042 82.2751 67.7157 90.7311 56.9986 90.7311C46.2815 90.7311 37.5957 82.2751 37.5957 71.8422C37.5957 61.4146 46.2815 52.9587 56.9986 52.9587C67.7157 52.9587 76.4042 61.4146 76.4042 71.8422Z" fill="#6CCB94"/>
<path d="M76.2602 72.4514H74.9033C74.9033 77.424 72.9006 81.9141 69.6578 85.172C66.415 88.4298 61.9483 90.4418 56.9986 90.4418C52.0516 90.4418 47.585 88.4298 44.3395 85.172C41.0966 81.9141 39.0966 77.424 39.0966 72.4514C39.0966 67.4815 41.0966 62.9941 44.3395 59.7363C47.585 56.4784 52.0516 54.4664 56.9986 54.4664C61.9483 54.4664 66.4151 56.4784 69.6606 59.7363C72.9007 62.9941 74.9033 67.4815 74.9033 72.4514H76.2602H77.617C77.617 61.0148 68.3851 51.7402 56.9986 51.7402C45.6121 51.7402 36.3829 61.0148 36.3829 72.4514C36.3829 83.8934 45.6121 93.168 56.9986 93.168C68.3878 93.168 77.617 83.8934 77.617 72.4514H76.2602Z" fill="black"/>
<path d="M84.4842 84.6387C89.2886 78.6067 92.1703 70.9641 92.1703 62.6426C92.1703 43.1613 76.422 27.3709 56.9987 27.3709C37.5754 27.3709 21.8298 43.1613 21.8298 62.6426C21.8298 70.9641 24.7086 78.6067 29.5184 84.6387H84.4842Z" fill="white"/>
<path d="M84.3779 84.5056L85.4301 85.349C90.3993 79.1179 93.383 71.2081 93.383 62.6117C93.3803 42.4749 77.0914 26.1552 56.9987 26.1525C36.9059 26.1552 20.6171 42.4749 20.6171 62.6117C20.6171 71.2081 23.5981 79.1179 28.57 85.349C28.8263 85.6707 29.2146 85.8572 29.6247 85.8572H84.3779C84.7853 85.8572 85.1765 85.6707 85.4301 85.349L84.3779 84.5056V83.1539H29.6247V84.5056L30.6769 83.6621C26.0719 77.8852 23.3148 70.5783 23.3148 62.6117C23.3148 53.2854 27.0835 44.8565 33.1804 38.7417C39.2799 32.6323 47.6942 28.8585 56.9987 28.8558C66.3058 28.8585 74.7174 32.6323 80.817 38.7417C86.9165 44.8565 90.6826 53.2854 90.6853 62.6117C90.6826 70.5783 87.9282 77.8852 83.3232 83.6621L84.3779 84.5056V83.1539V84.5056Z" fill="black"/>
<path d="M71.1144 74.891H42.8828C35.9443 74.891 30.3191 69.1634 30.3191 62.0986C30.3191 55.0337 35.9443 49.3033 42.8828 49.3033H71.1144C78.0556 49.3033 83.6808 55.0337 83.6808 62.0986C83.6808 69.1634 78.0556 74.891 71.1144 74.891Z" fill="#6CCB94"/>
<path d="M70.7452 74.7516V73.3937H42.0394C38.8862 73.3937 36.0429 72.1308 33.9754 70.0858C31.908 68.0381 30.6356 65.2218 30.6356 62.0986C30.6356 58.9753 31.908 56.159 33.9754 54.1112C36.0429 52.0635 38.8862 50.8034 42.0394 50.8007H70.7452C73.8985 50.8034 76.7418 52.0635 78.8093 54.1112C80.8767 56.159 82.149 58.9753 82.1517 62.0986C82.149 65.2218 80.8767 68.0381 78.8093 70.0858C76.7418 72.1308 73.8985 73.3937 70.7452 73.3937V74.7516V76.1095C78.5598 76.1095 84.8909 69.8387 84.8937 62.0986C84.8909 54.3584 78.5598 48.0875 70.7452 48.0848H42.0394C34.2248 48.0875 27.8937 54.3584 27.8937 62.0986C27.8937 69.8387 34.2248 76.1095 42.0394 76.1095H70.7452V74.7516Z" fill="black"/>
<path d="M38.1145 62.1518C38.9439 59.9164 41.1531 58.3102 43.7466 58.3129C46.2267 58.3102 48.3502 59.7746 49.2626 61.852C49.8571 63.2146 51.48 63.8517 52.8873 63.2735C54.2919 62.6979 54.95 61.1265 54.3555 59.7665C52.6081 55.7643 48.5133 52.964 43.7466 52.9587C38.7532 52.964 34.5009 56.0373 32.9083 60.3421C32.3913 61.7342 33.1405 63.2682 34.5755 63.7661C36.0132 64.2667 37.5974 63.5439 38.1145 62.1518Z" fill="black"/>
<path d="M64.4963 62.1518C65.2797 59.9164 67.3661 58.3102 69.8182 58.3129C72.1606 58.3102 74.1635 59.7746 75.0253 61.852C75.5867 63.2146 77.1197 63.8517 78.4489 63.2735C79.7781 62.6979 80.3969 61.1265 79.8354 59.7665C78.1876 55.7669 74.3202 52.964 69.8182 52.9587C65.0995 52.964 61.0858 56.0373 59.579 60.3421C59.0933 61.7342 59.7984 63.2682 61.1563 63.7661C62.5142 64.2667 64.0079 63.5439 64.4963 62.1518Z" fill="black"/>
<path d="M52.1489 67.5802C52.4597 69.6413 54.5125 71.2356 57.0014 71.2356C59.4903 71.2356 61.543 69.6413 61.8511 67.5802H52.1489Z" fill="white"/>
<path d="M52.266 66.5679L50.9465 66.7502C51.3323 69.9697 53.8915 72.4513 57.0013 72.4541C60.1084 72.4513 62.6676 69.9697 63.0533 66.7502C63.1012 66.3457 62.9841 65.9325 62.7314 65.6276C62.4814 65.3228 62.1142 65.1433 61.7338 65.1433H52.266C51.8856 65.1433 51.5185 65.3228 51.2684 65.6276C51.0183 65.9325 50.8986 66.3457 50.9465 66.7502L52.266 66.5679V67.9924H61.7338V66.5679L60.4142 66.3884C60.1961 68.1976 58.7517 69.6079 57.0013 69.605C55.2508 69.6079 53.8036 68.1976 53.5855 66.3884L52.266 66.5679V67.9924V66.5679Z" fill="black"/>
<path d="M101.872 68.7987C99.8617 68.7987 98.234 67.1378 98.234 65.0896V56.6678C98.234 54.6196 99.8617 52.9587 101.872 52.9587C103.883 52.9587 105.511 54.6196 105.511 56.6678V65.0896C105.511 67.1378 103.883 68.7987 101.872 68.7987Z" fill="black"/>
<path d="M101.872 68.6749V67.3326C100.633 67.3299 99.6308 66.2989 99.6308 65.0237V56.7337C99.6308 55.4585 100.633 54.4275 101.872 54.4248C103.112 54.4275 104.114 55.4585 104.114 56.7337V65.0237C104.114 66.2989 103.112 67.3299 101.872 67.3326V68.6749V70.0172C104.552 70.0145 106.723 67.7809 106.723 65.0237V56.7337C106.723 53.9765 104.552 51.7429 101.872 51.7402C99.1923 51.7429 97.0212 53.9765 97.0212 56.7337V65.0237C97.0212 67.7809 99.1923 70.0145 101.872 70.0172V68.6749Z" fill="black"/>
<path d="M10.9136 68.7987C8.90643 68.7987 7.27661 67.1378 7.27661 65.0896V56.6678C7.27661 54.6196 8.90643 52.9587 10.9136 52.9587C12.9234 52.9587 14.5532 54.6196 14.5532 56.6678V65.0896C14.5532 67.1378 12.9234 68.7987 10.9136 68.7987Z" fill="black"/>
<path d="M10.9136 68.6749V67.3326C9.67704 67.3299 8.67524 66.2989 8.67263 65.0237V56.7337C8.67524 55.4585 9.67704 54.4275 10.9136 54.4248C12.1528 54.4275 13.1546 55.4585 13.1572 56.7337V65.0237C13.1546 66.2989 12.1528 67.3299 10.9136 67.3326V68.6749V70.0172C13.5954 70.0145 15.766 67.7809 15.766 65.0237V56.7337C15.766 53.9765 13.5954 51.7429 10.9136 51.7402C8.23438 51.7429 6.06384 53.9765 6.06384 56.7337V65.0237C6.06384 67.7809 8.23438 70.0145 10.9136 70.0172V68.6749Z" fill="black"/>
<path d="M17.3993 57.8325C15.1567 57.8325 13.3405 56.0811 13.3405 53.9184V47.7705C13.3405 41.0771 15.387 34.6193 19.2582 29.0935C20.5117 27.3037 23.0357 26.8323 24.8946 28.041C26.7506 29.2526 27.2394 31.6865 25.986 33.4763C23.0243 37.7029 21.4582 42.6449 21.4582 47.7705V53.9184C21.4582 56.0811 19.6419 57.8325 17.3993 57.8325Z" fill="black"/>
<path d="M91.4742 33.4633C90.8618 33.4633 90.2601 33.1568 89.8884 32.5936C84.8824 24.9271 76.5524 20.3471 67.6047 20.3471H46.38C37.443 20.3471 29.1184 24.9188 24.1097 32.5742C23.5188 33.4742 22.3314 33.7117 21.4596 33.1016C20.5825 32.4915 20.3553 31.2684 20.9436 30.3657C26.6663 21.6225 36.1754 16.4048 46.38 16.4048H67.6047C77.8253 16.4048 87.3372 21.6335 93.0572 30.3905C93.6456 31.2933 93.4155 32.519 92.5411 33.1264C92.2148 33.3528 91.8432 33.4633 91.4742 33.4633Z" fill="black"/>
<path d="M96.965 57.8325C94.9236 57.8325 93.2729 56.0798 93.2729 53.9156V47.7633C93.2729 42.6423 91.8524 37.7023 89.1642 33.4782C88.0233 31.6843 88.4683 29.2513 90.1604 28.0417C91.855 26.8293 94.15 27.3066 95.2909 29.1005C98.8019 34.622 100.66 41.0761 100.66 47.7633V53.9156C100.66 56.0798 99.0063 57.8325 96.965 57.8325Z" fill="black"/>
<path d="M17.5865 74.891C13.2318 74.891 9.70215 71.3976 9.70215 67.0904V54.6697C9.70215 50.3597 13.2318 46.8664 17.5865 46.8664C21.9412 46.8664 25.4681 50.3597 25.4681 54.6697V67.0904C25.4681 71.3976 21.9412 74.891 17.5865 74.891Z" fill="white"/>
<path d="M17.5865 74.7403V73.3711C14.0753 73.3657 11.2358 70.5287 11.2303 67.0236V54.7365C11.2358 51.2314 14.0781 48.3917 17.5865 48.3863C21.0948 48.3917 23.9345 51.2287 23.94 54.7365V67.0236C23.9345 70.5287 21.0948 73.3657 17.5865 73.3711V74.7403V76.1095C22.6106 76.1095 26.6809 72.043 26.6809 67.0236V54.7365C26.6809 49.7171 22.6106 45.6479 17.5865 45.6479C12.5624 45.6479 8.48938 49.7171 8.48938 54.7365V67.0236C8.48938 72.043 12.5624 76.1095 17.5865 76.1095V74.7403Z" fill="black"/>
<path d="M16.9788 74.891H18.1915V46.8664H16.9788V74.891Z" fill="#6CCB94"/>
<path d="M16.921 74.7403V76.1095H18.2493C18.5542 76.1095 18.8499 75.9644 19.067 75.7097C19.2819 75.4523 19.4043 75.1018 19.4043 74.7403V47.0171C19.4043 46.6556 19.2819 46.3051 19.067 46.0477C18.8499 45.793 18.5542 45.6479 18.2493 45.6479H16.921C16.6161 45.6479 16.3181 45.793 16.1032 46.0477C15.8884 46.3051 15.766 46.6556 15.766 47.0171V74.7403C15.766 75.1018 15.8884 75.4523 16.1032 75.7097C16.3181 75.9644 16.6161 76.1095 16.921 76.1095V74.7403H18.076V48.3863H18.2493V47.0171H17.0943V73.3711H16.921V74.7403H18.076H16.921Z" fill="black"/>
<path d="M95.2034 74.891C90.8487 74.891 87.3191 71.3976 87.3191 67.0904V54.6697C87.3191 50.3597 90.8487 46.8664 95.2034 46.8664C99.5554 46.8664 103.085 50.3597 103.085 54.6697V67.0904C103.085 71.3976 99.5554 74.891 95.2034 74.891Z" fill="white"/>
<path d="M95.2035 74.7403V73.3711C91.6924 73.3657 88.8556 70.5287 88.8474 67.0236V54.7365C88.8556 51.2287 91.6924 48.3917 95.2035 48.3863C98.7119 48.3917 101.552 51.2287 101.557 54.7365V67.0236C101.552 70.5287 98.7119 73.3657 95.2035 73.3711V74.7403V76.1095C100.228 76.1095 104.298 72.043 104.298 67.0236V54.7365C104.298 49.7171 100.228 45.6479 95.2035 45.6479C90.1794 45.6479 86.1092 49.7171 86.1064 54.7365V67.0236C86.1092 72.043 90.1794 76.1095 95.2035 76.1095V74.7403Z" fill="black"/>
<path d="M94.5957 74.891H95.8085V46.8664H94.5957V74.891Z" fill="#6CCB94"/>
<path d="M94.5379 74.7403V76.1095H95.8662C96.1688 76.1095 96.4669 75.9644 96.6817 75.7097C96.8966 75.4523 97.0212 75.1018 97.0212 74.7403V47.0171C97.0212 46.6556 96.8966 46.3051 96.6817 46.0477C96.4669 45.793 96.1688 45.6479 95.8662 45.6479H94.5379C94.233 45.6479 93.935 45.793 93.7202 46.0477C93.5054 46.3051 93.3829 46.6556 93.3829 47.0171V74.7403C93.3829 75.1018 93.5054 75.4523 93.7202 75.7097C93.935 75.9644 94.233 76.1095 94.5379 76.1095V74.7403H95.693V48.3863H95.8662V47.0171H94.7112V73.3711H94.5379V74.7403H95.693H94.5379Z" fill="black"/>
<path d="M57.3468 44.4294C62.7387 44.4294 67.7598 41.6296 70.6918 36.9941L73.9787 31.7934C69.011 28.9799 63.3043 27.3709 57.2241 27.3709C50.9624 27.3709 45.0903 29.0809 40.0212 32.0583L44.9542 38.3463C47.969 42.1923 52.5285 44.4294 57.3468 44.4294Z" fill="#6CCB94"/>
<path d="M56.7498 44.3025V45.6479C62.7476 45.6479 68.3374 42.6583 71.5992 37.7098L74.9705 32.5864C75.1786 32.2716 75.2417 31.8922 75.1513 31.5262C75.0582 31.1629 74.8171 30.8588 74.4857 30.6785C69.1918 27.7993 63.1009 26.1525 56.6238 26.1525C49.9495 26.1525 43.6859 27.9043 38.2824 30.9476C37.9346 31.1441 37.6936 31.4777 37.6197 31.8652C37.5457 32.2527 37.6444 32.6509 37.8963 32.9577L42.9602 39.1521C46.3179 43.2584 51.39 45.6479 56.7498 45.6479V44.3025V42.957C52.2199 42.957 47.931 40.9361 45.0937 37.4676L40.0325 31.2732L38.9644 32.1155L39.6463 33.2833C44.6527 30.4633 50.4397 28.846 56.6238 28.8434C62.6271 28.846 68.2552 30.3664 73.1576 33.0331L73.823 31.8545L72.6728 31.1252L69.2986 36.2486C66.5434 40.4303 61.8192 42.957 56.7498 42.957V44.3025Z" fill="black"/>
<path d="M58.2128 77.9376C58.2128 77.5984 57.9414 77.3289 57.6065 77.3289C57.2715 77.3289 57 77.5984 57 77.9376C57 78.2739 57.2715 78.5464 57.6065 78.5464C57.9414 78.5464 58.2128 78.2739 58.2128 77.9376Z" fill="black"/>
<path d="M58.2128 79.1561C58.2128 78.8198 57.9414 78.5473 57.6065 78.5473C57.2715 78.5473 57 78.8198 57 79.1561C57 79.4895 57.2715 79.7649 57.6065 79.7649C57.9414 79.7649 58.2128 79.4895 58.2128 79.1561Z" fill="black"/>
</svg>
