<svg width="157" height="125" viewBox="0 0 157 125" fill="none" xmlns="http://www.w3.org/2000/svg">
<path d="M147.132 89.1864H9.869V9.76602H147.132V89.1864ZM4.40636 0.151276C1.97274 0.151276 0 2.1339 0 4.57568V100.935C0 103.377 1.97274 105.359 4.40636 105.359H152.595C155.028 105.359 157 103.377 157 100.935V4.57568C157 2.1339 155.028 0.151276 152.595 0.151276H4.40636Z" fill="#9B9B9B"/>
<path d="M98.8002 107.344H58.1986C57.9316 107.344 57.6426 107.594 57.3819 108.06L51.9146 117.734C50.7113 119.865 50.6089 124.233 51.8082 124.233H105.193C106.387 124.233 106.29 119.865 105.085 117.734L99.6204 108.06C99.3573 107.594 99.0682 107.344 98.8002 107.344Z" fill="#9B9B9B"/>
<path d="M15.776 66.2585H77.5234V83.8597H15.776V66.2585ZM15.776 59.5596H45.7331V63.0458H15.776V59.5596ZM15.776 16.123H141.226V56.6411H15.776V16.123ZM141.226 63.0458H111.267V59.5596H141.226V63.0458ZM79.4358 63.0458V59.5596H109.395V63.0458H79.4358ZM141.187 68.6935H79.4358V66.0512H141.187V68.6935ZM141.187 73.2315H79.4358V70.5898H141.187V73.2315ZM141.187 77.767H79.4358V75.1249H141.187V77.767ZM111.597 82.3071H79.4358V79.6635H111.597V82.3071ZM77.5643 63.0458H47.6048V59.5596H77.5643V63.0458ZM9.86902 89.1864H147.132V9.76604H9.86902V89.1864Z" fill="white"/>
<path d="M15.776 56.6411H141.226C141.226 40.8178 141.226 31.9463 141.226 16.123H15.776V56.6411Z" fill="#39BD66"/>
<path d="M15.776 63.0458H45.7331V59.5596H15.776V63.0458Z" fill="black"/>
<path d="M15.776 83.8597H77.5234V66.2585H15.776V83.8597Z" fill="#39BD66"/>
<path d="M77.5642 63.0458V59.5596H47.6047V63.0458H77.5642Z" fill="#39BD66"/>
<path d="M109.395 63.0458V59.5596H79.4357V63.0458H109.395Z" fill="black"/>
<path d="M141.187 68.6935V66.0512H79.4357V68.6935H141.187Z" fill="black"/>
<path d="M141.187 73.2315V70.5898H79.4357V73.2315H141.187Z" fill="black"/>
<path d="M141.187 77.7671V75.1249H79.4357V77.7671H141.187Z" fill="black"/>
<path d="M111.597 82.3071V79.6636H79.4357V82.3071H111.597Z" fill="black"/>
<path d="M141.226 63.0458V59.5596H111.267V63.0458H141.226Z" fill="#39BD66"/>
</svg>
