<svg width="288" height="179" viewBox="0 0 288 179" fill="none" xmlns="http://www.w3.org/2000/svg">
<path d="M221.494 175.522H183.564V149.141H221.494V175.522Z" fill="#56575A"/>
<path d="M235.708 177.92H169.352V171.924H235.708V177.92Z" fill="#9B9B9B"/>
<path d="M287.2 154.537H117.858V42.4166H287.2V154.537Z" fill="#9B9B9B"/>
<path d="M283.597 141.39H121.461V45.7066H283.597V141.39Z" fill="#56575A"/>
<path d="M275.147 132.954H129.911V51.5476H275.147V132.954Z" fill="white"/>
<path d="M105.631 139.234H22.4021V13.8525H88.1099L105.631 31.9541V139.234Z" fill="#9B9B9B"/>
<path d="M88.1097 13.8528L105.631 31.9544H88.2303L88.1097 13.8528Z" fill="#11FF8D"/>
<path d="M95.8046 140.29L60.3745 58.4027L2.7927 110.844L0 107.787L61.874 51.4382L97.3334 133.39L162.691 75.2406L199.681 100.305L260.243 63.6366L262.391 67.1763L199.556 105.22L163.036 80.4763L95.8046 140.29Z" fill="#FF5C98"/>
<path d="M42.2926 169.082L54.4351 157.858H151.584L162.3 169.082H42.2926Z" fill="#9B9B9B"/>
<path d="M150.066 159.136H54.5244C52.9481 159.136 51.6696 157.816 51.6696 156.187V96.468C51.6696 94.8412 52.9481 93.5209 54.5244 93.5209H150.066C151.644 93.5209 152.921 94.8412 152.921 96.468V156.187C152.921 157.816 151.644 159.136 150.066 159.136Z" fill="#56575A"/>
<path d="M146.36 156.672H58.2321C56.7782 156.672 55.5983 155.496 55.5983 154.043V100.754C55.5983 99.302 56.7782 98.124 58.2321 98.124H146.36C147.814 98.124 148.994 99.302 148.994 100.754V154.043C148.994 155.496 147.814 156.672 146.36 156.672Z" fill="white"/>
<path d="M103.368 95.4486C103.368 96.0395 102.888 96.5191 102.296 96.5191C101.704 96.5191 101.224 96.0395 101.224 95.4486C101.224 94.8578 101.704 94.3781 102.296 94.3781C102.888 94.3781 103.368 94.8578 103.368 95.4486Z" fill="#025482"/>
<path d="M156.15 178.013H48.4406C45.0451 178.013 42.2926 175.263 42.2926 171.872V169.082H162.3V171.872C162.3 175.263 159.547 178.013 156.15 178.013Z" fill="#56575A"/>
<path d="M81.58 159.103C81.58 159.694 81.0996 160.174 80.5078 160.174H68.3635C67.7736 160.174 67.2932 159.694 67.2932 159.103C67.2932 158.514 67.7736 158.035 68.3635 158.035H80.5078C81.0996 158.035 81.58 158.514 81.58 159.103Z" fill="black"/>
<path d="M139.085 159.103C139.085 159.694 138.605 160.174 138.013 160.174H125.869C125.277 160.174 124.796 159.694 124.796 159.103C124.796 158.514 125.277 158.035 125.869 158.035H138.013C138.605 158.035 139.085 158.514 139.085 159.103Z" fill="black"/>
<path d="M88.1884 167.477L92.1792 163.786H112.882L116.404 167.477H88.1884Z" fill="black"/>
<path d="M105.867 162.043H99.1747V161.356H105.867V162.043Z" fill="white"/>
<path d="M57.8285 166.836H50.3271V166.147H57.8285V166.836Z" fill="white"/>
<path d="M63.3645 162.043H56.6704V161.356H63.3645V162.043Z" fill="white"/>
<path d="M60.508 164.231H53.814V163.541H60.508V164.231Z" fill="white"/>
<path d="M76.4002 162.043H69.7062V161.356H76.4002V162.043Z" fill="white"/>
<path d="M73.0066 164.231H66.3143V163.541H73.0066V164.231Z" fill="white"/>
<path d="M81.9383 166.836H74.4369V166.147H81.9383V166.836Z" fill="white"/>
<path d="M89.0797 162.043H82.3875V161.356H89.0797V162.043Z" fill="white"/>
<path d="M85.688 164.231H78.9939V163.541H85.688V164.231Z" fill="white"/>
<path d="M69.9709 167.372H62.4713V166.683H69.9709V167.372Z" fill="white"/>
<path d="M155.515 166.836H148.013V166.147H155.515V166.836Z" fill="white"/>
<path d="M149.171 162.043H142.477V161.356H149.171V162.043Z" fill="white"/>
<path d="M152.029 164.231H145.335V163.541H152.029V164.231Z" fill="white"/>
<path d="M136.134 162.043H129.441V161.356H136.134V162.043Z" fill="white"/>
<path d="M139.527 164.231H132.833V163.541H139.527V164.231Z" fill="white"/>
<path d="M131.405 166.836H123.905V166.147H131.405V166.836Z" fill="white"/>
<path d="M123.456 162.043H116.762V161.356H123.456V162.043Z" fill="white"/>
<path d="M126.848 164.231H120.154V163.541H126.848V164.231Z" fill="white"/>
<path d="M143.37 167.372H135.869V166.683H143.37V167.372Z" fill="white"/>
<path d="M95.8046 140.29L60.3745 58.4027L2.7927 110.844L0 107.787L61.874 51.4382L97.3334 133.39L162.691 75.2406L199.681 100.305L260.243 63.6366L262.391 67.1763L199.556 105.22L163.036 80.4763L95.8046 140.29Z" fill="#11FF8D"/>
<path d="M259.217 84.2869L255.327 82.8571L261.274 66.7451L243 65.319L243.321 61.1939L267.055 63.0449L259.217 84.2869Z" fill="#11FF8D"/>
<path d="M43.6056 33.9512H34.3965V25.9435H43.6056V33.9512Z" fill="#11FF8D"/>
<path d="M52.7399 33.9512H43.5326V19.7158H52.7399V33.9512Z" fill="#39BD66"/>
<path d="M61.8742 33.9512H52.6669V13.1396H61.8742V33.9512Z" fill="#11FF8D"/>
<path d="M71.0102 33.9512H61.801V6.73858H71.0102V33.9512Z" fill="#39BD66"/>
<path d="M80.1445 33.9512H70.9353V0.288326H80.1445V33.9512Z" fill="#11FF8D"/>
<path d="M139.447 123.814C140.89 121.932 143.124 120.97 145.359 121.076L146.377 107.506C139.449 107.06 132.473 110.111 128.183 116.145L139.447 123.814Z" fill="black"/>
<path d="M150.409 132.602C148.117 135.336 144.075 135.941 141.061 133.889C137.964 131.781 137.085 127.634 138.999 124.468L127.735 116.802C121.589 126.179 124.071 138.788 133.388 145.129C142.619 151.413 155.136 149.212 161.686 140.276L150.409 132.602Z" fill="#11FF8D"/>
<path d="M146.148 121.158C147.135 121.315 148.105 121.689 148.985 122.287C152.167 124.454 153.005 128.767 150.885 131.964L162.143 139.627C168.503 130.224 166.059 117.445 156.66 111.048C153.728 109.051 150.466 107.913 147.169 107.572L146.148 121.158Z" fill="#39BD66"/>
</svg>
