<svg width="25" height="26" viewBox="0 0 25 26" fill="none" xmlns="http://www.w3.org/2000/svg">
<path d="M0.528633 13.2801C0.528053 15.3746 1.07619 17.4198 2.11845 19.2224L0.428955 25.3815L6.74178 23.7288C8.48782 24.6779 10.4441 25.1752 12.4321 25.1753H12.4374C19.0002 25.1753 24.3424 19.8432 24.3452 13.2894C24.3465 10.1136 23.1089 7.12735 20.8605 4.88062C18.6124 2.63409 15.6225 1.39622 12.4369 1.39478C5.87332 1.39478 0.53144 6.72655 0.52873 13.2801" fill="url(#paint0_linear_301_39)"/>
<path d="M0.103549 13.2762C0.102872 15.4461 0.67065 17.5644 1.75008 19.4316L0 25.8115L6.53918 24.0996C8.34094 25.0804 10.3695 25.5975 12.4337 25.5983H12.4391C19.2373 25.5983 24.7715 20.0744 24.7744 13.286C24.7756 9.99615 23.4935 6.9025 21.1647 4.57529C18.8356 2.24836 15.7388 0.965952 12.4391 0.9646C5.63966 0.9646 0.106356 6.48769 0.103646 13.2762H0.103549ZM3.99777 19.11L3.75361 18.723C2.72722 17.0936 2.18547 15.2105 2.18624 13.277C2.18847 7.63454 6.7876 3.04397 12.4429 3.04397C15.1817 3.04513 17.7555 4.1111 19.6914 6.04515C21.6272 7.97939 22.6924 10.5506 22.6917 13.2853C22.6892 18.9277 18.0899 23.5188 12.4391 23.5188H12.435C10.595 23.5179 8.79046 23.0245 7.2167 22.0922L6.84218 21.8704L2.9617 22.8862L3.99777 19.1099V19.11Z" fill="url(#paint1_linear_301_39)"/>
<path d="M9.35601 8.12922C9.1251 7.61682 8.8821 7.60648 8.66252 7.59749C8.48271 7.58976 8.27716 7.59034 8.0718 7.59034C7.86625 7.59034 7.53228 7.66755 7.24999 7.9753C6.96741 8.28334 6.17114 9.02774 6.17114 10.5418C6.17114 12.0559 7.27564 13.5191 7.4296 13.7246C7.58377 13.9297 9.56185 17.1361 12.6946 18.3696C15.2983 19.3947 15.8281 19.1909 16.3932 19.1395C16.9584 19.0882 18.2168 18.3953 18.4736 17.6767C18.7305 16.9581 18.7305 16.3423 18.6535 16.2136C18.5764 16.0853 18.3709 16.0083 18.0627 15.8545C17.7543 15.7006 16.239 14.9561 15.9565 14.8534C15.674 14.7507 15.4685 14.6995 15.263 15.0077C15.0574 15.3153 14.4672 16.0083 14.2873 16.2136C14.1076 16.4193 13.9277 16.4449 13.6195 16.2909C13.3111 16.1365 12.3185 15.812 11.1408 14.7637C10.2246 13.948 9.60598 12.9407 9.42617 12.6325C9.24636 12.3249 9.40691 12.1581 9.56146 12.0048C9.69994 11.8669 9.86978 11.6454 10.024 11.4658C10.1777 11.2861 10.229 11.1578 10.3318 10.9526C10.4347 10.7472 10.3832 10.5675 10.3062 10.4135C10.229 10.2596 9.63007 8.73777 9.35601 8.12932" fill="white"/>
<defs>
<linearGradient id="paint0_linear_301_39" x1="12.3871" y1="25.3815" x2="12.3871" y2="1.39478" gradientUnits="userSpaceOnUse">
<stop stop-color="#1FAF38"/>
<stop offset="1" stop-color="#60D669"/>
</linearGradient>
<linearGradient id="paint1_linear_301_39" x1="12.3872" y1="25.8115" x2="12.3872" y2="0.9646" gradientUnits="userSpaceOnUse">
<stop stop-color="#F9F9F9"/>
<stop offset="1" stop-color="white"/>
</linearGradient>
</defs>
</svg>
