<svg width="315" height="185" viewBox="0 0 315 185" fill="none" xmlns="http://www.w3.org/2000/svg">
<path d="M93.9228 122.455L39.3601 74.8213C33.6449 81.4766 7.24941 112.169 5.29668 113.667L3.8551 111.796C5.36581 110.6 25.3068 87.5694 38.342 72.3801L39.1188 71.4749L93.6992 119.124L124.6 83.8376L142.897 99.8112L186.35 56.9393C189.333 53.9966 194.027 53.6884 197.369 56.2155L256.108 100.622L310.471 38.5443L312.25 40.0979L256.332 103.953L191.769 57.9665L143.121 103.142L124.823 87.1686L93.9228 122.455Z" fill="white"/>
<path d="M9.44695 112.275C9.62179 114.877 7.65104 117.127 5.0452 117.302C2.43956 117.476 0.185604 115.509 0.0107668 112.907C-0.163879 110.305 1.80688 108.055 4.41271 107.88C7.01841 107.706 9.27231 109.674 9.44695 112.275Z" fill="#11FF8D"/>
<path d="M43.5106 73.4298C43.6851 76.0318 41.7142 78.2824 39.1087 78.4566C36.5027 78.6308 34.2491 76.6634 34.0741 74.0615C33.8996 71.46 35.8705 69.2094 38.476 69.0352C41.082 68.8605 43.3356 70.8283 43.5106 73.4298Z" fill="#11FF8D"/>
<path d="M97.1627 119.52C97.3372 122.122 95.3668 124.372 92.7608 124.547C90.1553 124.721 87.9012 122.754 87.7262 120.152C87.5517 117.55 89.5226 115.3 92.1281 115.125C94.7341 114.951 96.9877 116.919 97.1627 119.52Z" fill="#11FF8D"/>
<path d="M128.063 84.234C128.238 86.8354 126.267 89.086 123.661 89.2603C121.056 89.4345 118.802 87.4671 118.627 84.8651C118.452 82.2636 120.423 80.0131 123.029 79.8388C125.635 79.6641 127.889 81.632 128.063 84.234Z" fill="#11FF8D"/>
<path d="M147.535 98.3011C147.71 100.903 145.739 103.154 143.133 103.328C140.527 103.502 138.273 101.535 138.099 98.9328C137.924 96.3313 139.895 94.0807 142.501 93.9065C145.106 93.7317 147.36 95.6996 147.535 98.3011Z" fill="#333436"/>
<path d="M195.905 43.9665C196.08 46.5685 194.109 48.8186 191.503 48.9933C188.897 49.1675 186.644 47.1996 186.469 44.5981C186.294 41.9962 188.265 39.7461 190.871 39.5714C193.477 39.3971 195.73 41.3651 195.905 43.9665Z" fill="#333436"/>
<path d="M314.989 38.6258C315.164 41.2278 313.193 43.4779 310.587 43.6526C307.982 43.8268 305.728 41.8594 305.553 39.2574C305.378 36.656 307.349 34.4054 309.955 34.2307C312.561 34.0564 314.815 36.0244 314.989 38.6258Z" fill="#11FF8D"/>
<path d="M260.078 100.233C260.253 102.834 258.282 105.085 255.677 105.259C253.071 105.434 250.817 103.466 250.642 100.865C250.467 98.2627 252.438 96.0121 255.044 95.8379C257.65 95.6636 259.904 97.631 260.078 100.233Z" fill="#11FF8D"/>
<path d="M155.691 88.6719L192.444 51.9826L242.547 90.3696L236.745 97.2779L193.192 63.502L156.305 100.86L155.691 88.6719Z" fill="white"/>
<path d="M125.458 133.791L114.855 122.884C113.509 121.501 113.561 119.288 114.969 117.968L146.497 88.4098C147.859 87.133 150.038 87.1829 151.339 88.5216L161.943 99.4281C163.289 100.812 163.237 103.024 161.829 104.344L130.301 133.903C128.939 135.18 126.76 135.13 125.458 133.791Z" fill="white"/>
<path d="M159.86 91.2128C143.436 74.3201 144.07 47.5481 161.278 31.4161C178.485 15.2837 205.749 15.9004 222.172 32.7931C238.597 49.6863 237.962 76.4584 220.755 92.5904C203.548 108.723 176.284 108.106 159.86 91.2128ZM234.635 21.1096C211.641 -2.5407 173.473 -3.40418 149.382 19.181C125.292 41.7658 124.404 79.247 147.397 102.897C170.392 126.547 208.56 127.41 232.651 104.825C256.74 82.2402 257.629 44.7594 234.635 21.1096Z" fill="#9FA2A1"/>
<path d="M99.2073 170.366L76.3529 146.859L103.78 121.146L126.634 144.653L99.2073 170.366Z" fill="#454749"/>
<path d="M62.6052 159.748C61.0184 161.235 60.9395 163.707 62.4303 165.24L79.865 183.172C81.3552 184.705 83.8727 184.742 85.4601 183.254L99.2072 170.366L76.3528 146.859L62.6052 159.748Z" fill="#333436"/>
<path d="M140.29 126.523L122.854 108.59C121.364 107.057 118.867 107.001 117.306 108.465L103.78 121.146L126.634 144.653L140.16 131.971C141.722 130.508 141.78 128.056 140.29 126.523Z" fill="#333436"/>
<path d="M126.131 145.125L103.276 121.618L103.78 121.146L126.634 144.653L126.131 145.125Z" fill="#737779"/>
<path d="M99.0654 170.499L76.2111 146.992L76.7149 146.52L99.5687 170.027L99.0654 170.499Z" fill="#737779"/>
<path d="M180.572 106.944C154.488 99.9849 138.992 73.2306 145.962 47.1862C152.931 21.1418 179.727 5.66977 205.812 12.6284C231.897 19.5876 247.392 46.3419 240.423 72.3863C233.453 98.4307 206.657 113.903 180.572 106.944ZM236.811 18.8926C213.817 -4.75771 175.648 -5.62116 151.558 16.9641C127.468 39.5488 126.579 77.0301 149.573 100.68C172.567 124.33 210.736 125.193 234.826 102.608C258.917 80.0232 259.805 42.5424 236.811 18.8926Z" fill="#454749"/>
<path d="M227.666 27.4665C209.522 8.80505 179.296 8.12157 160.288 25.9426C141.279 43.7636 140.576 73.4443 158.719 92.1057C176.863 110.767 207.088 111.451 226.097 93.6296C245.105 75.8091 245.809 46.1279 227.666 27.4665ZM157.011 93.7069C137.969 74.121 138.707 42.9701 158.657 24.266C178.608 5.56233 210.33 6.27989 229.373 25.8658C248.416 45.4516 247.677 76.6025 227.727 95.3062C207.777 114.01 176.054 113.293 157.011 93.7069Z" fill="#333436"/>
<path d="M186.591 84.4563C172.945 80.8162 164.838 66.8196 168.484 53.1945C172.13 39.5695 186.148 31.4752 199.794 35.1158C213.441 38.7564 221.547 52.753 217.901 66.378C214.255 80.0031 200.237 88.0969 186.591 84.4563Z" fill="#39BD66"/>
</svg>
