<svg width="161" height="154" viewBox="0 0 161 154" fill="none" xmlns="http://www.w3.org/2000/svg">
<path d="M107.937 153.588H60.7346C57.2326 153.588 54.623 151.111 54.623 147.592V37.9322C54.623 32.9312 58.6574 28.8761 63.6338 28.8761H105.496C107.515 28.8761 106.568 27.7321 108.382 28.2084C115.19 29.9933 114.507 34.9588 114.507 37.9322L114.526 146.165C114.526 150.192 111.439 153.588 107.937 153.588Z" fill="#686868"/>
<path d="M107.123 152.393H59.921C56.4192 152.393 53.5802 149.539 53.5802 146.019V36.361C53.5802 31.3577 57.6144 27.3048 62.591 27.3048H104.454C109.43 27.3048 113.464 31.3577 113.464 36.361V146.019C113.464 149.539 110.625 152.393 107.123 152.393Z" fill="#9B9B9B"/>
<path d="M110.669 147.298H56.6672V36.361H110.669V147.298Z" fill="white"/>
<path d="M114.651 59.4431H78.6543C77.2614 59.4431 76.1324 58.308 76.1324 56.9081V47.024C76.1324 45.6241 77.2614 44.489 78.6543 44.489H114.651C116.044 44.489 117.173 45.6241 117.173 47.024V56.9081C117.173 58.308 116.044 59.4431 114.651 59.4431Z" fill="black"/>
<path d="M103.46 57.035L108.749 62.8929C109.038 63.2133 109.568 62.9841 109.533 62.5523L109.134 57.5424L103.46 57.035Z" fill="black"/>
<path d="M113.539 49.4789H108.725C108.435 49.4789 108.2 49.2432 108.2 48.9519C108.2 48.6605 108.435 48.4226 108.725 48.4226H113.539C113.829 48.4226 114.064 48.6605 114.064 48.9519C114.064 49.2432 113.829 49.4789 113.539 49.4789Z" fill="#11FF8D"/>
<path d="M106.498 49.4789H79.789C79.4989 49.4789 79.2637 49.2432 79.2637 48.9519C79.2637 48.6605 79.4989 48.4226 79.789 48.4226H106.498C106.788 48.4226 107.023 48.6605 107.023 48.9519C107.023 49.2432 106.788 49.4789 106.498 49.4789Z" fill="#11FF8D"/>
<path d="M113.539 52.4946H90.3692C90.0791 52.4946 89.8439 52.2589 89.8439 51.9675C89.8439 51.6762 90.0791 51.4405 90.3692 51.4405H113.539C113.829 51.4405 114.064 51.6762 114.064 51.9675C114.064 52.2589 113.829 52.4946 113.539 52.4946Z" fill="#11FF8D"/>
<path d="M88.0577 52.4946H79.789C79.4989 52.4946 79.2637 52.2589 79.2637 51.9675C79.2637 51.6762 79.4989 51.4405 79.789 51.4405H88.0577C88.3478 51.4405 88.583 51.6762 88.583 51.9675C88.583 52.2589 88.3478 52.4946 88.0577 52.4946Z" fill="#11FF8D"/>
<path d="M108.305 55.5105H95.2974C95.0073 55.5105 94.7721 55.2747 94.7721 54.9834C94.7721 54.692 95.0073 54.4563 95.2974 54.4563H108.305C108.595 54.4563 108.83 54.692 108.83 54.9834C108.83 55.2747 108.595 55.5105 108.305 55.5105Z" fill="#11FF8D"/>
<path d="M93.1432 55.5105H79.789C79.4989 55.5105 79.2637 55.2747 79.2637 54.9834C79.2637 54.692 79.4989 54.4563 79.789 54.4563H93.1432C93.4333 54.4563 93.6687 54.692 93.6687 54.9834C93.6687 55.2747 93.4333 55.5105 93.1432 55.5105Z" fill="#11FF8D"/>
<path d="M52.5146 83.6803H88.4316C89.8212 83.6803 90.9479 82.5475 90.9479 81.152V71.2879C90.9479 69.8925 89.8212 68.7596 88.4316 68.7596H52.5146C51.1251 68.7596 49.9985 69.8925 49.9985 71.2879V81.152C49.9985 82.5475 51.1251 83.6803 52.5146 83.6803Z" fill="#C4C4C4"/>
<path d="M64.4884 81.2789L59.2121 87.1212C58.9231 87.4417 58.395 87.2124 58.4291 86.7807L58.827 81.7841L64.4884 81.2789Z" fill="#C4C4C4"/>
<path d="M87.2992 73.7384H74.4899C74.2004 73.7384 73.9657 73.5027 73.9657 73.2113C73.9657 72.92 74.2004 72.6843 74.4899 72.6843H87.2992C87.5886 72.6843 87.8233 72.92 87.8233 73.2113C87.8233 73.5027 87.5886 73.7384 87.2992 73.7384Z" fill="black"/>
<path d="M72.2673 73.7384H53.625C53.3355 73.7384 53.1006 73.5027 53.1006 73.2113C53.1006 72.92 53.3355 72.6843 53.625 72.6843H72.2673C72.5567 72.6843 72.7914 72.92 72.7914 73.2113C72.7914 73.5027 72.5567 73.7384 72.2673 73.7384Z" fill="black"/>
<path d="M87.2992 76.7474H53.625C53.3355 76.7474 53.1006 76.5117 53.1006 76.2204C53.1006 75.929 53.3355 75.6933 53.625 75.6933H87.2992C87.5887 75.6933 87.8234 75.929 87.8234 76.2204C87.8234 76.5117 87.5887 76.7474 87.2992 76.7474Z" fill="black"/>
<path d="M66.9494 79.7565H53.625C53.3355 79.7565 53.1006 79.5208 53.1006 79.2295C53.1006 78.9381 53.3355 78.7024 53.625 78.7024H66.9494C67.2388 78.7024 67.4735 78.9381 67.4735 79.2295C67.4735 79.5208 67.2388 79.7565 66.9494 79.7565Z" fill="black"/>
<path d="M112.478 112.863H70.4199C68.7927 112.863 67.4735 111.539 67.4735 109.903V98.3541C67.4735 96.7182 68.7927 95.3917 70.4199 95.3917H112.478C114.105 95.3917 115.424 96.7182 115.424 98.3541V109.903C115.424 111.539 114.105 112.863 112.478 112.863Z" fill="black"/>
<path d="M99.4028 110.05L105.581 116.894C105.92 117.268 106.538 117.001 106.498 116.495L106.032 110.642L99.4028 110.05Z" fill="black"/>
<path d="M111.178 101.221H80.8486C80.5096 101.221 80.2347 100.945 80.2347 100.605C80.2347 100.264 80.5096 99.9886 80.8486 99.9886H111.178C111.517 99.9886 111.792 100.264 111.792 100.605C111.792 100.945 111.517 101.221 111.178 101.221Z" fill="#11FF8D"/>
<path d="M78.2459 101.221H71.7459C71.4069 101.221 71.1321 100.945 71.1321 100.605C71.1321 100.264 71.4069 99.9886 71.7459 99.9886H78.2459C78.585 99.9886 78.8598 100.264 78.8598 100.605C78.8598 100.945 78.585 101.221 78.2459 101.221Z" fill="#11FF8D"/>
<path d="M99.4028 107.942H84.1075C83.7685 107.942 83.4937 107.666 83.4937 107.324C83.4937 106.984 83.7685 106.708 84.1075 106.708H99.4028C99.7418 106.708 100.017 106.984 100.017 107.324C100.017 107.666 99.7418 107.942 99.4028 107.942Z" fill="#11FF8D"/>
<path d="M81.4066 107.942H71.7459C71.4069 107.942 71.1321 107.666 71.1321 107.324C71.1321 106.984 71.4069 106.708 71.7459 106.708H81.4066C81.7457 106.708 82.0205 106.984 82.0205 107.324C82.0205 107.666 81.7457 107.942 81.4066 107.942Z" fill="#11FF8D"/>
<path d="M94.9474 104.744H71.7459C71.4069 104.744 71.1321 104.468 71.1321 104.128C71.1321 103.788 71.4069 103.512 71.7459 103.512H94.9474C95.2865 103.512 95.5613 103.788 95.5613 104.128C95.5613 104.468 95.2865 104.744 94.9474 104.744Z" fill="#11FF8D"/>
<path d="M105.063 104.744H97.464C97.1252 104.744 96.8503 104.468 96.8503 104.128C96.8503 103.788 97.1252 103.512 97.464 103.512H105.063C105.402 103.512 105.677 103.788 105.677 104.128C105.677 104.468 105.402 104.744 105.063 104.744Z" fill="#11FF8D"/>
<path d="M98.5023 123.684C98.5023 120.541 101.038 117.993 104.166 117.993C107.293 117.993 109.829 120.541 109.829 123.684C109.829 126.829 107.293 129.377 104.166 129.377C101.038 129.377 98.5023 126.829 98.5023 123.684Z" fill="black"/>
<path d="M100.014 69.4206C100.014 66.6964 102.211 64.4886 104.921 64.4886C107.632 64.4886 109.829 66.6964 109.829 69.4206C109.829 72.1448 107.632 74.3527 104.921 74.3527C102.211 74.3527 100.014 72.1448 100.014 69.4206Z" fill="black"/>
<path d="M57.2898 92.7009C57.2898 89.9768 59.487 87.7689 62.1973 87.7689C64.9079 87.7689 67.1051 89.9768 67.1051 92.7009C67.1051 95.4251 64.9079 97.633 62.1973 97.633C59.487 97.633 57.2898 95.4251 57.2898 92.7009Z" fill="#C4C4C4"/>
<path d="M156.067 83.9208L129.613 75.9641L133.936 61.4485L160.39 69.4051L156.067 83.9208Z" fill="#1EB350"/>
<path d="M133.936 61.4484L145.002 72.6835L129.613 75.9641L133.936 61.4484Z" fill="#39BD66"/>
<path d="M160.39 69.4051L145.002 72.6835L156.067 83.9208L160.39 69.4051Z" fill="#39BD66"/>
<path d="M160.39 69.4051L144.959 74.5575C144.614 74.671 144.238 74.5575 144.012 74.2726L133.936 61.4484L160.39 69.4051Z" fill="#11FF8D"/>
<path d="M120.864 14.6072H110.701C108.897 14.6072 107.435 13.1376 107.435 11.3242V3.29803C107.435 1.48467 108.897 0.0150194 110.701 0.0150194H120.864C122.669 0.0150194 124.131 1.48467 124.131 3.29803V11.3242C124.131 13.1376 122.669 14.6072 120.864 14.6072Z" fill="#9D9D9D"/>
<path d="M116.873 12.6906L111.4 18.3465C111.157 18.5987 110.741 18.3579 110.836 18.0209L112.335 12.6906H116.873Z" fill="#9D9D9D"/>
<path d="M117.994 3.15664C116.463 3.15664 115.782 4.59317 115.782 4.59317C115.782 4.59317 115.102 3.15664 113.571 3.15664C112.04 3.15664 111.325 4.52499 111.325 5.75463C111.325 6.98662 114.728 10.6121 115.782 11.4679C116.838 10.6121 120.24 6.98662 120.24 5.75463C120.24 4.52499 119.526 3.15664 117.994 3.15664Z" fill="#11FF8D"/>
<path d="M106.27 139.668H62.7297C61.2221 139.668 60 138.633 60 137.357V135.951C60 134.675 61.2221 133.64 62.7297 133.64H106.27C107.778 133.64 109 134.675 109 135.951V137.357C109 138.633 107.778 139.668 106.27 139.668Z" fill="#9B9B9B"/>
<path d="M44.5863 31.6789L21.0295 18.5764C20.1204 18.0709 19.6863 16.9941 19.9885 15.9949L23.2691 5.14246C23.6766 3.79531 25.2168 3.16757 26.4433 3.84938L54.1266 19.2465C55.3531 19.9306 55.6418 21.574 54.7219 22.6367L47.3146 31.1945C46.6327 31.9821 45.4956 32.1844 44.5863 31.6789Z" fill="#11FF8D"/>
<path d="M22.8544 17.316L27.0518 28.5942L28.8962 19.7659L22.8544 17.316Z" fill="#11FF8D"/>
<path d="M38.1724 91.1096L14.5029 107.499C13.1415 108.443 11.3251 108.372 10.0394 107.328L1.38537 100.295C-0.553645 98.7191 -0.438932 95.7122 1.61457 94.29L25.284 77.9004C26.6455 76.9589 28.4618 77.0279 29.7473 78.074L38.4016 85.1048C40.3406 86.6805 40.2259 89.6896 38.1724 91.1096Z" fill="white"/>
<path d="M21.4005 100.395L36.2959 100.564L28.2781 95.6321L21.4005 100.395Z" fill="white"/>
</svg>
