<svg width="117" height="117" viewBox="0 0 117 117" fill="none" xmlns="http://www.w3.org/2000/svg">
<path d="M58.5 117C90.8087 117 117 90.8087 117 58.5C117 26.1913 90.8087 0 58.5 0C26.1913 0 0 26.1913 0 58.5C0 90.8087 26.1913 117 58.5 117Z" fill="#1D1D1D"/>
<path d="M108.5 58.5C108.5 86.1142 86.1142 108.5 58.5 108.5C30.8858 108.5 8.5 86.1142 8.5 58.5C8.5 30.8858 30.8858 8.5 58.5 8.5C86.1142 8.5 108.5 30.8858 108.5 58.5Z" fill="#1D1D1D" stroke="#11FF8D" stroke-width="5"/>
<path d="M71.6608 82V39.3438H66.5339V57.6836H49.0436V39.3438H43.946V82H49.0436V62.2831H66.5339V82H71.6608Z" fill="#11FF8D"/>
</svg>
