<svg width="348" height="33" viewBox="0 0 348 33" fill="none" xmlns="http://www.w3.org/2000/svg">
<path d="M40.7602 25.9641V1.33826H37.8447V11.9261H27.8988V1.33826H25V25.9641H27.8988V14.5815H37.8447V25.9641H40.7602ZM54.0047 26.3024C55.7595 26.3024 57.231 25.9472 58.4194 25.2368C59.619 24.5152 60.5186 23.6921 61.1184 22.7675L59.2358 21.2791C58.6694 22.0233 57.9586 22.621 57.1034 23.0719C56.2481 23.5229 55.2708 23.7485 54.1712 23.7485C53.3383 23.7485 52.5775 23.5906 51.8889 23.2748C51.2002 22.9592 50.6117 22.525 50.123 21.9726C49.6453 21.4539 49.2678 20.8563 48.9901 20.1797C48.7236 19.5032 48.5514 18.7196 48.4736 17.8289V17.7104H61.3516V16.3066C61.3516 15.0325 61.1906 13.8485 60.8684 12.7548C60.5575 11.6611 60.0799 10.7082 59.4357 9.89651C58.7916 9.09582 57.9807 8.47006 57.0034 8.0191C56.0371 7.55681 54.9042 7.32566 53.6048 7.32566C52.5719 7.32566 51.5612 7.53989 50.5727 7.96834C49.5954 8.39679 48.7236 9.01136 47.9572 9.81191C47.1797 10.6238 46.5578 11.6159 46.0913 12.7887C45.6248 13.95 45.3916 15.2692 45.3916 16.7464V17.4568C45.3916 18.7308 45.6026 19.9092 46.0246 20.9916C46.4466 22.0741 47.0353 23.01 47.7905 23.7992C48.5458 24.5884 49.451 25.203 50.5062 25.6428C51.5724 26.0826 52.7385 26.3024 54.0047 26.3024ZM53.6048 9.89651C54.3934 9.89651 55.0709 10.0431 55.6373 10.3361C56.2148 10.6294 56.6925 11.0127 57.07 11.4863C57.4477 11.9599 57.742 12.5237 57.9531 13.1776C58.1641 13.8204 58.2696 14.4236 58.2696 14.9873V15.1396H48.5736C48.6957 14.2939 48.9068 13.5497 49.2066 12.907C49.5176 12.253 49.8953 11.7005 50.3395 11.2495C50.7838 10.8098 51.2835 10.4771 51.8389 10.2517C52.3943 10.0148 52.9828 9.89651 53.6048 9.89651ZM66.5328 25.9641H69.6149V12.8393C69.8259 12.4447 70.0702 12.0839 70.3479 11.7569C70.6366 11.4299 70.9476 11.1424 71.2808 10.8944C71.6918 10.6125 72.1415 10.3925 72.6302 10.2348C73.1189 10.0656 73.6466 9.98097 74.2129 9.98097C74.8681 9.98097 75.4457 10.06 75.9455 10.2178C76.4564 10.3757 76.8896 10.6294 77.2449 10.979C77.5893 11.3284 77.8503 11.7851 78.028 12.3489C78.2057 12.9127 78.2945 13.6004 78.2945 14.4123V25.9641H81.3766V14.3446C81.3766 13.1269 81.2266 12.0782 80.9268 11.1988C80.6381 10.308 80.2216 9.57503 79.6774 9.00003C79.133 8.42503 78.4723 8.00218 77.6948 7.7316C76.9284 7.46088 76.0732 7.32566 75.1292 7.32566C74.4295 7.33685 73.7631 7.44397 73.13 7.647C72.508 7.83871 71.9305 8.11489 71.3974 8.47566C71.0421 8.71253 70.7033 8.99444 70.3812 9.32137C70.0702 9.63711 69.7814 9.9867 69.5149 10.37L69.2983 7.66392H66.5328V25.9641ZM98.8361 7.32566C97.5255 7.32566 96.3538 7.61876 95.3209 8.20508C94.299 8.78021 93.4216 9.56944 92.6886 10.573L92.6719 10.1163L92.5386 7.66392H89.6066V25.9641H92.7052V14.2263C92.9051 13.6625 93.1551 13.1551 93.4549 12.7041C93.766 12.2418 94.1268 11.8528 94.5378 11.537C94.9932 11.1763 95.5262 10.9056 96.1371 10.7252C96.748 10.5335 97.431 10.4377 98.1862 10.4377C98.7749 10.4377 99.3358 10.4715 99.8689 10.5392C100.413 10.5955 100.985 10.6913 101.585 10.8267L102.001 7.7653C101.69 7.63008 101.224 7.52297 100.602 7.44397C99.9911 7.3651 99.4024 7.32566 98.8361 7.32566ZM107.999 7.66392V10.3869H114.13V23.258H107.999V25.9641H123.093V23.258H117.212V7.66392H107.999ZM113.73 2.86049C113.73 3.36794 113.88 3.79067 114.18 4.12906C114.491 4.46732 114.957 4.63638 115.579 4.63638C116.19 4.63638 116.651 4.46732 116.962 4.12906C117.273 3.79067 117.428 3.36794 117.428 2.86049C117.428 2.57858 117.384 2.31933 117.295 2.08245C117.206 1.84571 117.073 1.64841 116.895 1.49054C116.751 1.34399 116.568 1.23115 116.345 1.15228C116.123 1.06208 115.868 1.01692 115.579 1.01692C115.29 1.01692 115.029 1.06208 114.796 1.15228C114.574 1.23115 114.391 1.34399 114.246 1.49054C114.069 1.6596 113.935 1.86263 113.846 2.09937C113.769 2.33611 113.73 2.58991 113.73 2.86049ZM127.441 16.6618V17.017C127.441 18.325 127.602 19.5483 127.924 20.6872C128.258 21.8147 128.735 22.7956 129.356 23.63C129.978 24.4644 130.734 25.1184 131.622 25.592C132.523 26.0656 133.543 26.3024 134.688 26.3024C135.277 26.3024 135.826 26.246 136.337 26.1333C136.848 26.0205 137.32 25.857 137.753 25.6428C138.097 25.4849 138.413 25.2932 138.703 25.0676C139.003 24.8422 139.286 24.5884 139.552 24.3067V33H142.635V7.66392H139.802L139.669 9.47365C139.436 9.20294 139.186 8.95487 138.92 8.72945C138.652 8.5039 138.37 8.3066 138.07 8.1374C137.604 7.86682 137.087 7.66392 136.52 7.52856C135.965 7.39321 135.365 7.32566 134.721 7.32566C133.566 7.32566 132.533 7.55681 131.622 8.0191C130.722 8.48139 129.962 9.12407 129.34 9.94713C128.718 10.7703 128.246 11.7569 127.924 12.907C127.602 14.0458 127.441 15.2974 127.441 16.6618ZM130.523 17.017V16.6618C130.523 15.7711 130.617 14.9198 130.806 14.1079C131.006 13.296 131.311 12.5743 131.722 11.943C132.122 11.3228 132.633 10.8267 133.255 10.4546C133.877 10.0825 134.616 9.89651 135.471 9.89651C135.949 9.89651 136.387 9.95845 136.787 10.0825C137.198 10.1952 137.575 10.3588 137.92 10.573C138.253 10.7872 138.552 11.0409 138.819 11.3341C139.097 11.6159 139.341 11.9317 139.552 12.2812V21.313C139.331 21.6851 139.08 22.0289 138.803 22.3447C138.525 22.6491 138.209 22.9085 137.853 23.1227C137.52 23.3144 137.154 23.4665 136.753 23.5794C136.354 23.6921 135.915 23.7485 135.437 23.7485C134.583 23.7485 133.844 23.5681 133.222 23.2073C132.61 22.8352 132.105 22.3391 131.706 21.7189C131.306 21.0987 131.006 20.3827 130.806 19.5709C130.617 18.759 130.523 17.9077 130.523 17.017ZM160.377 25.9641H163.176V7.66392H160.078V20.7886C159.911 21.1833 159.7 21.5497 159.444 21.888C159.2 22.215 158.911 22.4969 158.578 22.7337C158.178 23.0268 157.706 23.258 157.162 23.4271C156.617 23.585 156.002 23.6639 155.313 23.6639C154.724 23.6639 154.201 23.585 153.746 23.4271C153.302 23.2692 152.924 22.9931 152.613 22.5983C152.302 22.215 152.069 21.6963 151.914 21.0424C151.758 20.3884 151.68 19.5652 151.68 18.5729V7.66392H148.599V18.5392C148.599 19.9034 148.744 21.0762 149.032 22.0572C149.331 23.0268 149.754 23.8275 150.297 24.4588C150.842 25.0903 151.498 25.5582 152.264 25.8626C153.031 26.1558 153.885 26.3024 154.83 26.3024C156.007 26.3024 157.045 26.0543 157.945 25.5582C158.844 25.0509 159.593 24.3461 160.193 23.444L160.377 25.9641ZM176.954 26.3024C178.708 26.3024 180.18 25.9472 181.368 25.2368C182.567 24.5152 183.468 23.6921 184.067 22.7675L182.184 21.2791C181.619 22.0233 180.907 22.621 180.052 23.0719C179.198 23.5229 178.22 23.7485 177.12 23.7485C176.287 23.7485 175.526 23.5906 174.838 23.2748C174.149 22.9592 173.56 22.525 173.072 21.9726C172.594 21.4539 172.216 20.8563 171.939 20.1797C171.673 19.5032 171.5 18.7196 171.422 17.8289V17.7104H184.301V16.3066C184.301 15.0325 184.14 13.8485 183.817 12.7548C183.506 11.6611 183.029 10.7082 182.385 9.89651C181.741 9.09582 180.93 8.47006 179.952 8.0191C178.986 7.55681 177.854 7.32566 176.553 7.32566C175.521 7.32566 174.51 7.53989 173.522 7.96834C172.544 8.39679 171.673 9.01136 170.907 9.81191C170.128 10.6238 169.506 11.6159 169.041 12.7887C168.573 13.95 168.341 15.2692 168.341 16.7464V17.4568C168.341 18.7308 168.551 19.9092 168.974 20.9916C169.396 22.0741 169.984 23.01 170.74 23.7992C171.494 24.5884 172.4 25.203 173.455 25.6428C174.521 26.0826 175.687 26.3024 176.954 26.3024ZM176.553 9.89651C177.342 9.89651 178.019 10.0431 178.586 10.3361C179.163 10.6294 179.641 11.0127 180.019 11.4863C180.397 11.9599 180.691 12.5237 180.902 13.1776C181.113 13.8204 181.218 14.4236 181.218 14.9873V15.1396H171.522C171.644 14.2939 171.855 13.5497 172.156 12.907C172.467 12.253 172.844 11.7005 173.288 11.2495C173.733 10.8098 174.232 10.4771 174.788 10.2517C175.343 10.0148 175.931 9.89651 176.553 9.89651ZM222.668 19.74C222.668 20.4165 222.524 21.0028 222.235 21.4989C221.946 21.9839 221.574 22.3841 221.118 22.6998C220.663 23.0268 220.141 23.2692 219.553 23.4271C218.975 23.5737 218.386 23.6469 217.786 23.6469C217.032 23.6469 216.331 23.5455 215.688 23.3425C215.054 23.1283 214.494 22.8125 214.004 22.3954C213.516 21.9895 213.116 21.4933 212.805 20.907C212.494 20.3094 212.289 19.6273 212.189 18.8606H209.04C209.074 19.9204 209.301 20.8845 209.724 21.7527C210.157 22.6096 210.739 23.3594 211.473 24.0021C212.294 24.7463 213.26 25.3157 214.372 25.7105C215.492 26.1051 216.631 26.3024 217.786 26.3024C218.753 26.3024 219.719 26.167 220.685 25.8964C221.652 25.6145 222.518 25.1974 223.285 24.6449C224.051 24.1036 224.673 23.4215 225.151 22.5983C225.639 21.7753 225.883 20.8112 225.883 19.7061C225.883 18.6125 225.656 17.6483 225.201 16.814C224.756 15.9796 224.167 15.2749 223.434 14.6998C222.69 14.0796 221.869 13.5723 220.969 13.1776C220.068 12.7718 219.169 12.4278 218.269 12.1459C217.726 11.9768 217.142 11.7795 216.52 11.554C215.91 11.3284 215.343 11.0465 214.821 10.7082C214.288 10.37 213.849 9.95846 213.506 9.47365C213.161 8.97752 212.983 8.37427 212.972 7.66392C212.972 7.00992 213.1 6.43478 213.355 5.93879C213.621 5.44266 213.977 5.0254 214.422 4.68714C214.855 4.34888 215.348 4.09522 215.905 3.92602C216.47 3.75696 217.047 3.67236 217.637 3.67236C218.37 3.67236 219.025 3.79067 219.602 4.02754C220.192 4.25309 220.697 4.57443 221.118 4.99156C221.541 5.40882 221.879 5.91054 222.135 6.49687C222.39 7.07187 222.563 7.71468 222.651 8.42503H225.816C225.794 7.29742 225.555 6.27705 225.1 5.36365C224.644 4.4504 224.039 3.67236 223.285 3.02968C222.529 2.38687 221.663 1.89074 220.685 1.54129C219.707 1.18039 218.692 1 217.637 1C216.681 1 215.731 1.15228 214.788 1.4567C213.844 1.74979 212.999 2.18397 212.255 2.75897C211.511 3.3341 210.906 4.03873 210.44 4.87312C209.985 5.70751 209.756 6.65474 209.756 7.71468C209.756 8.77448 209.985 9.69907 210.44 10.4884C210.906 11.2665 211.506 11.943 212.239 12.518C212.961 13.0818 213.76 13.5666 214.638 13.9725C215.527 14.3671 216.398 14.7055 217.254 14.9873C217.843 15.179 218.453 15.3932 219.085 15.6301C219.73 15.8669 220.319 16.1601 220.852 16.5095C221.385 16.8704 221.818 17.3101 222.151 17.8289C222.496 18.3475 222.668 18.9846 222.668 19.74ZM238.428 26.3024C240.183 26.3024 241.654 25.9472 242.843 25.2368C244.042 24.5152 244.943 23.6921 245.542 22.7675L243.659 21.2791C243.092 22.0233 242.382 22.621 241.527 23.0719C240.671 23.5229 239.695 23.7485 238.595 23.7485C237.762 23.7485 237.001 23.5906 236.312 23.2748C235.624 22.9592 235.035 22.525 234.547 21.9726C234.069 21.4539 233.691 20.8563 233.413 20.1797C233.146 19.5032 232.975 18.7196 232.897 17.8289V17.7104H245.774V16.3066C245.774 15.0325 245.614 13.8485 245.292 12.7548C244.981 11.6611 244.503 10.7082 243.859 9.89651C243.214 9.09582 242.405 8.47006 241.427 8.0191C240.461 7.55681 239.327 7.32566 238.028 7.32566C236.995 7.32566 235.985 7.53989 234.995 7.96834C234.019 8.39679 233.146 9.01136 232.38 9.81191C231.603 10.6238 230.981 11.6159 230.514 12.7887C230.048 13.95 229.815 15.2692 229.815 16.7464V17.4568C229.815 18.7308 230.026 19.9092 230.448 20.9916C230.87 22.0741 231.459 23.01 232.213 23.7992C232.969 24.5884 233.875 25.203 234.93 25.6428C235.995 26.0826 237.162 26.3024 238.428 26.3024ZM238.028 9.89651C238.817 9.89651 239.494 10.0431 240.061 10.3361C240.638 10.6294 241.116 11.0127 241.494 11.4863C241.87 11.9599 242.166 12.5237 242.376 13.1776C242.587 13.8204 242.693 14.4236 242.693 14.9873V15.1396H232.997C233.119 14.2939 233.33 13.5497 233.629 12.907C233.94 12.253 234.318 11.7005 234.763 11.2495C235.207 10.8098 235.707 10.4771 236.262 10.2517C236.817 10.0148 237.406 9.89651 238.028 9.89651ZM262.768 7.32566C261.457 7.32566 260.286 7.61876 259.253 8.20508C258.231 8.78021 257.354 9.56944 256.62 10.573L256.603 10.1163L256.471 7.66392H253.538V25.9641H256.637V14.2263C256.837 13.6625 257.086 13.1551 257.387 12.7041C257.698 12.2418 258.059 11.8528 258.469 11.537C258.925 11.1763 259.458 10.9056 260.069 10.7252C260.679 10.5335 261.363 10.4377 262.118 10.4377C262.707 10.4377 263.267 10.4715 263.801 10.5392C264.344 10.5955 264.917 10.6913 265.516 10.8267L265.934 7.7653C265.623 7.63008 265.155 7.52297 264.533 7.44397C263.923 7.3651 263.334 7.32566 262.768 7.32566ZM283.26 7.32566C281.949 7.32566 280.777 7.61876 279.744 8.20508C278.722 8.78021 277.845 9.56944 277.112 10.573L277.096 10.1163L276.962 7.66392H274.03V25.9641H277.129V14.2263C277.328 13.6625 277.579 13.1551 277.878 12.7041C278.189 12.2418 278.55 11.8528 278.961 11.537C279.416 11.1763 279.95 10.9056 280.56 10.7252C281.172 10.5335 281.854 10.4377 282.61 10.4377C283.198 10.4377 283.76 10.4715 284.292 10.5392C284.837 10.5955 285.408 10.6913 286.009 10.8267L286.425 7.7653C286.114 7.63008 285.647 7.52297 285.025 7.44397C284.414 7.3651 283.825 7.32566 283.26 7.32566ZM303.784 25.9641H307V25.6935C306.799 25.1861 306.644 24.5942 306.533 23.9176C306.421 23.2298 306.366 22.5814 306.366 21.9726V13.4652C306.366 12.4391 306.184 11.5426 305.816 10.7759C305.45 10.0092 304.95 9.36654 304.318 8.84776C303.673 8.34044 302.912 7.96274 302.034 7.71468C301.158 7.45529 300.208 7.32566 299.185 7.32566C298.065 7.32566 297.059 7.48353 296.171 7.79914C295.293 8.11489 294.549 8.52642 293.938 9.03387C293.317 9.55252 292.839 10.1332 292.506 10.7759C292.183 11.4186 292.016 12.0726 292.006 12.7379H295.104C295.104 12.3545 295.193 11.988 295.371 11.6386C295.56 11.2777 295.821 10.9676 296.154 10.7082C296.487 10.449 296.893 10.2404 297.371 10.0825C297.859 9.92462 298.409 9.84575 299.02 9.84575C299.675 9.84575 300.263 9.93021 300.785 10.0994C301.318 10.2686 301.768 10.5053 302.135 10.8098C302.502 11.1255 302.785 11.5032 302.984 11.943C303.184 12.3828 303.285 12.8789 303.285 13.4314V14.869H299.919C298.664 14.869 297.525 14.993 296.504 15.2411C295.493 15.4892 294.627 15.8613 293.905 16.3574C293.183 16.8647 292.623 17.4962 292.222 18.2516C291.834 19.0071 291.64 19.8867 291.64 20.8901C291.64 21.6568 291.784 22.3729 292.073 23.0381C292.372 23.6921 292.795 24.2559 293.338 24.7294C293.872 25.2143 294.522 25.5976 295.288 25.8795C296.065 26.1614 296.931 26.3024 297.886 26.3024C298.475 26.3024 299.031 26.2404 299.553 26.1164C300.075 25.9924 300.569 25.8232 301.036 25.6089C301.491 25.3947 301.907 25.1466 302.285 24.8647C302.673 24.5828 303.024 24.284 303.335 23.9684C303.368 24.3517 303.417 24.7238 303.484 25.0846C303.562 25.4341 303.662 25.7274 303.784 25.9641ZM298.336 23.5794C297.737 23.5794 297.209 23.5004 296.754 23.3425C296.298 23.1846 295.92 22.9648 295.621 22.6829C295.321 22.4123 295.094 22.0853 294.938 21.702C294.793 21.3186 294.721 20.9014 294.721 20.4503C294.721 19.9768 294.805 19.554 294.972 19.1819C295.149 18.8098 295.405 18.4885 295.738 18.2177C296.204 17.8345 296.831 17.5526 297.62 17.3722C298.42 17.1805 299.352 17.0847 300.419 17.0847H303.285V20.7886C303.106 21.1495 302.862 21.4989 302.551 21.8372C302.24 22.1643 301.874 22.4574 301.452 22.7168C301.019 22.9761 300.541 23.1846 300.019 23.3425C299.496 23.5004 298.936 23.5794 298.336 23.5794Z" fill="#11FF8D"/>
<path d="M16 23V19.5271L4.45285 15.3455L3.45284 15.0265L4.45285 14.7253L16 10.4729V7L0 13.6976V16.2846L16 23Z" fill="#11FF8D"/>
<path d="M320.006 30L331 0H328.011L317 30H320.006Z" fill="#11FF8D"/>
<path d="M331 23L348 16.2847V13.6978L331 7V10.3843L343.457 14.6369L344.612 14.9735L343.457 15.2747L331 19.5981V23Z" fill="#11FF8D"/>
</svg>
