<svg width="131" height="131" viewBox="0 0 131 131" fill="none" xmlns="http://www.w3.org/2000/svg">
<circle cx="65.5" cy="65.5" r="65.5" fill="#9B9B9B"/>
<path d="M106.926 42.8561C110.717 49.8006 112.697 57.5882 112.684 65.5C112.684 82.9136 103.267 98.1255 89.2366 106.292L103.645 64.6108C106.345 57.8777 107.234 52.4931 107.234 47.7091C107.234 45.9306 107.116 44.29 106.926 42.8561ZM72.01 43.3187C74.8483 43.1809 77.3945 42.8561 77.3945 42.8561C79.9408 42.5312 79.652 38.7873 77.1025 38.9252C77.1025 38.9252 69.4277 39.5059 64.5058 39.5059C59.8562 39.5059 52.0305 38.8563 52.0305 38.8563C49.4842 38.7184 49.143 42.6002 51.7056 42.7347C51.7056 42.7347 54.0648 42.9906 56.6275 43.1284L63.9775 63.2589L53.6055 94.2438L36.4314 43.1777C39.2697 43.0595 41.8323 42.7511 41.8323 42.7511C44.3786 42.4263 44.0898 38.6823 41.5403 38.8202C41.5403 38.8202 33.9016 39.4338 28.9633 39.4338C28.0905 39.4338 27.0503 39.4009 25.9544 39.3648C34.4823 26.7681 49.0248 18.3091 65.5 18.3091C77.7883 18.3091 88.9642 22.9914 97.3741 30.6991C97.1673 30.6991 96.9803 30.6663 96.7572 30.6663C92.1273 30.6663 88.8264 34.6989 88.8264 39.04C88.8264 42.9381 91.0839 46.2358 93.4759 50.1142C95.2708 53.2577 97.3544 57.31 97.3544 63.1375C97.3544 67.1373 95.8155 71.8525 93.7647 78.3658L89.0659 94.037L72.01 43.2466V43.3187ZM65.5 112.684C60.8702 112.684 56.3913 112.018 52.1683 110.771L66.3203 69.618L80.83 109.37C80.9317 109.61 81.0531 109.813 81.1712 110.02C76.1365 111.791 70.8372 112.693 65.5 112.688V112.684ZM18.2992 65.5C18.2992 58.6652 19.7692 52.1519 22.3844 46.2916L44.8905 107.986C29.1667 100.33 18.2992 84.1802 18.2992 65.5ZM65.5 13C36.5659 13 13 36.5659 13 65.5C13 94.4341 36.5659 118 65.5 118C94.4341 118 118 94.4341 118 65.5C118 36.5659 94.4341 13 65.5 13Z" fill="white"/>
</svg>
